<?xml version="1.0" encoding="utf-8"?>

<!-- Uploaded to: SVG Repo, www.svgrepo.com, Generator: SVG Repo Mixer Tools -->
<svg version="1.1" id="Uploaded to svgrepo.com" xmlns="http://www.w3.org/2000/svg" xmlns:xlink="http://www.w3.org/1999/xlink" 
	 width="800px" height="800px" viewBox="0 0 32 32" xml:space="preserve">
<style type="text/css">
	.cubies_negentien{fill:#F2C99E;}
	.cubies_twintig{fill:#F9E0BD;}
	.cubies_zesentwintig{fill:#65C3AB;}
	.st0{fill:#725A48;}
	.st1{fill:#8E7866;}
	.st2{fill:#D97360;}
	.st3{fill:#98D3BC;}
	.st4{fill:#C9483A;}
	.st5{fill:#CCE2CD;}
	.st6{fill:#EDB57E;}
	.st7{fill:#EC9B5A;}
	.st8{fill:#4C4842;}
	.st9{fill:#67625D;}
	.st10{fill:#FFF2DF;}
	.st11{fill:#C9C6C0;}
	.st12{fill:#EDEAE5;}
	.st13{fill:#A4C83F;}
	.st14{fill:#BCD269;}
	.st15{fill:#D1DE8B;}
	.st16{fill:#E69D8A;}
	.st17{fill:#E3D4C0;}
	.st18{fill:#C6B5A2;}
	.st19{fill:#837F79;}
	.st20{fill:#A5A29C;}
	.st21{fill:#2EB39A;}
	.st22{fill:#AB9784;}
</style>
<g>
	<path class="cubies_negentien" d="M29,32H3c-1.657,0-3-1.343-3-3V3c0-1.657,1.343-3,3-3h26c1.657,0,3,1.343,3,3v26
		C32,30.657,30.657,32,29,32z"/>
	<path class="cubies_twintig" d="M27,32H3c-1.657,0-3-1.343-3-3V3c0-1.657,1.343-3,3-3h24c1.657,0,3,1.343,3,3v26
		C30,30.657,28.657,32,27,32z"/>
	<path class="cubies_zesentwintig" d="M25,28H5c-0.552,0-1-0.448-1-1V5c0-0.552,0.448-1,1-1h20c0.552,0,1,0.448,1,1v22
		C26,27.552,25.552,28,25,28z"/>
	<path class="cubies_negentien" d="M5,27V5c0-0.552,0.448-1,1-1H5C4.448,4,4,4.448,4,5v22c0,0.552,0.448,1,1,1h1
		C5.448,28,5,27.552,5,27z"/>
	<path class="cubies_twintig" d="M15,7c-1.654,0-3,1.346-3,3v14c0,0.552,0.448,1,1,1s1-0.448,1-1v-7h2v7c0,0.552,0.448,1,1,1
		s1-0.448,1-1V10C18,8.346,16.654,7,15,7z M14,15v-5c0-0.551,0.449-1,1-1s1,0.449,1,1v5H14z"/>
</g>
</svg>